<?xml version="1.0" standalone="no"?><!DOCTYPE svg PUBLIC "-//W3C//DTD SVG 1.1//EN" "http://www.w3.org/Graphics/SVG/1.1/DTD/svg11.dtd"><svg class="icon" style="" viewBox="0 0 1024 1024" version="1.1" xmlns="http://www.w3.org/2000/svg" p-id="1168" xmlns:xlink="http://www.w3.org/1999/xlink" width="16" height="16"><defs><style type="text/css"><![CDATA[

]]></style></defs><path d="M415.074484 399.089417l31.927153 0 0 335.235111-31.927153 0 0-335.235111Z" p-id="1169" fill="#8a8a8a"></path><path d="M574.71025 399.089417l31.927153 0 0 335.235111-31.927153 0 0-335.235111Z" p-id="1170" fill="#8a8a8a"></path><path d="M686.455287 239.45365l0-95.78146c0-17.631566-14.295588-31.927153-31.927153-31.927153l-287.344381 0c-17.631566 0-31.927153 14.295588-31.927153 31.927153l0 95.78146-207.526497 0 0 47.89073 95.78146 0 0 558.725184c0 35.263132 28.591175 63.854307 63.854307 63.854307l446.980147 0c35.263132 0 63.854307-28.591175 63.854307-63.854307l0-558.725184 95.78146 0 0-47.89073L686.455287 239.45365zM383.14733 175.599344c0-8.823969 7.139607-15.963577 15.963577-15.963577l223.490074 0c8.822946 0 15.963577 7.139607 15.963577 15.963577l0 63.854307-255.417227 0L383.14733 175.599344zM750.309594 830.105988c0 17.631566-14.295588 31.927153-31.927153 31.927153l-415.052994 0c-17.631566 0-31.927153-14.295588-31.927153-31.927153l0-542.761608 478.907301 0L750.309594 830.105988z" p-id="1171" fill="#8a8a8a"></path></svg>